<svg xmlns="http://www.w3.org/2000/svg" width="141" height="72"><path fill="#2e3b4e" d="M190.684 0C199.658 0 207 7.347 207 16.325v121.35c0 8.979-7.342 16.325-16.316 16.325H-55.684C-64.658 154-72 146.654-72 137.675V16.325C-72 7.347-64.658 0-55.684 0zm-25.153 52.785c0-8.979-7.342-16.325-16.316-16.325h-13.868c-8.974 0-20.246 6.205-25.05 13.79 0 0-13.668 21.58-41.301 21.58-27.634 0-41.302-21.58-41.302-21.58-4.803-7.585-16.075-13.79-25.049-13.79h-13.869c-8.973 0-16.315 7.346-16.315 16.325v44.077c0 8.98 7.342 16.326 16.315 16.326h160.44c8.973 0 16.315-7.346 16.315-16.326z"/></svg>